<svg width="596" height="168" viewBox="0 0 596 168" version="1.1" xmlns="http://www.w3.org/2000/svg" xmlns:xlink="http://www.w3.org/1999/xlink">
<title>logo</title>
<desc>Created using Figma</desc>
<g id="Canvas" transform="translate(-175 -143)">
<g id="logo">
<g id="korona">
<g id="Ellipse">
<use xlink:href="#path0_fill" transform="translate(395.447 184.737)" fill="#219653"/>
</g>
<g id="Ellipse">
<use xlink:href="#path0_fill" transform="translate(353 184.737)" fill="#219653"/>
</g>
<g id="Ellipse">
<use xlink:href="#path0_fill" transform="translate(437.893 184.737)" fill="#219653"/>
</g>
<g id="Ellipse">
<use xlink:href="#path0_fill" transform="translate(396.233 143)" fill="#219653"/>
</g>
</g>
<g id="Ostrycharz">
<g id="oSTR">
<use xlink:href="#path1_fill" transform="translate(171 236)"/>
</g>
<g id="CHARz">
<use xlink:href="#path2_fill" transform="translate(473 236)"/>
</g>
<g id="Y">
<use xlink:href="#path3_fill" transform="translate(383 202)" fill="#3D1F1F"/>
</g>
</g>
</g>
</g>
<defs>
<path id="path0_fill" d="M 84.107 42.1312C 84.107 65.3997 65.279 84.2625 42.0535 84.2625C 18.828 84.2625 0 65.3997 0 42.1312C 0 18.8628 18.828 0 42.0535 0C 65.279 0 84.107 18.8628 84.107 42.1312Z"/>
<path id="path1_fill" d="M 66.0938 30.8828C 66.0938 35.2187 65.3086 38.9688 63.7383 42.1328C 62.168 45.2734 60.0117 47.875 57.2695 49.9375C 54.5273 51.9766 51.293 53.4883 47.5664 54.4727C 43.8398 55.457 39.8203 55.9492 35.5078 55.9492C 31.1719 55.9492 27.1289 55.457 23.3789 54.4727C 19.6289 53.4883 16.3711 51.9766 13.6055 49.9375C 10.8398 47.875 8.67188 45.2734 7.10156 42.1328C 5.53125 38.9688 4.74609 35.2187 4.74609 30.8828C 4.74609 28 5.10937 25.3867 5.83594 23.043C 6.5625 20.6758 7.58203 18.5664 8.89453 16.7148C 10.207 14.8398 11.7891 13.2227 13.6406 11.8633C 15.5156 10.5039 17.5898 9.37891 19.8633 8.48828C 22.1602 7.57422 24.6211 6.90625 27.2461 6.48438C 29.8711 6.03906 32.625 5.81641 35.5078 5.81641C 39.8203 5.81641 43.8398 6.30859 47.5664 7.29297C 51.293 8.27734 54.5273 9.80078 57.2695 11.8633C 60.0117 13.9023 62.168 16.5039 63.7383 19.668C 65.3086 22.8086 66.0938 26.5469 66.0938 30.8828ZM 61.5586 30.8828C 61.5586 27.4609 60.9961 24.4375 59.8711 21.8125C 58.7695 19.1875 57.1289 16.9844 54.9492 15.2031C 52.7695 13.3984 50.0508 12.0391 46.793 11.125C 43.5586 10.1875 39.7969 9.71875 35.5078 9.71875C 31.2188 9.71875 27.4336 10.1875 24.1523 11.125C 20.8945 12.0625 18.1641 13.4336 15.9609 15.2383C 13.7578 17.0195 12.0938 19.2344 10.9688 21.8828C 9.84375 24.5078 9.28125 27.5078 9.28125 30.8828C 9.28125 34.3047 9.84375 37.3281 10.9688 39.9531C 12.0938 42.5781 13.7578 44.793 15.9609 46.5977C 18.1641 48.3789 20.8945 49.7383 24.1523 50.6758C 27.4336 51.5898 31.2188 52.0469 35.5078 52.0469C 39.7969 52.0469 43.5586 51.5898 46.793 50.6758C 50.0508 49.7383 52.7695 48.3789 54.9492 46.5977C 57.1289 44.793 58.7695 42.5781 59.8711 39.9531C 60.9961 37.3281 61.5586 34.3047 61.5586 30.8828ZM 118.02 13.832C 117.105 13.3867 116.051 12.918 114.855 12.4258C 113.66 11.9102 112.289 11.4531 110.742 11.0547C 109.219 10.6562 107.496 10.3281 105.574 10.0703C 103.652 9.78906 101.52 9.64844 99.1758 9.64844C 96.3398 9.64844 93.8086 9.8125 91.582 10.1406C 89.3789 10.4688 87.5039 10.9844 85.957 11.6875C 84.4336 12.3672 83.2617 13.2344 82.4414 14.2891C 81.6445 15.3438 81.2461 16.5977 81.2461 18.0508C 81.2461 19.2695 81.6211 20.3359 82.3711 21.25C 83.1445 22.1641 84.1758 22.9727 85.4648 23.6758C 86.7773 24.3789 88.3008 25.0234 90.0352 25.6094C 91.793 26.1719 93.6445 26.7109 95.5898 27.2266C 97.5586 27.7188 99.5742 28.2227 101.637 28.7383C 103.723 29.2539 105.738 29.8164 107.684 30.4258C 109.652 31.0117 111.504 31.6797 113.238 32.4297C 114.996 33.1563 116.52 34.0117 117.809 34.9961C 119.121 35.9805 120.152 37.1055 120.902 38.3711C 121.676 39.6367 122.062 41.1016 122.062 42.7656C 122.062 44.5703 121.723 46.1523 121.043 47.5117C 120.363 48.8477 119.438 50.0078 118.266 50.9922C 117.117 51.9531 115.758 52.7617 114.188 53.418C 112.641 54.0508 110.977 54.5547 109.195 54.9297C 107.438 55.3047 105.609 55.5625 103.711 55.7031C 101.836 55.8672 99.9844 55.9492 98.1562 55.9492C 93.9609 55.9492 90.1523 55.6445 86.7305 55.0352C 83.332 54.4258 80.0859 53.5938 76.9922 52.5391L 76.9922 47.1602C 80.1797 49.0586 83.543 50.3594 87.082 51.0625C 90.6445 51.7656 94.3828 52.1172 98.2969 52.1172C 101.063 52.1172 103.617 51.9531 105.961 51.625C 108.305 51.2969 110.332 50.7812 112.043 50.0781C 113.754 49.3516 115.078 48.4141 116.016 47.2656C 116.977 46.1172 117.457 44.7109 117.457 43.0469C 117.457 41.7109 117.07 40.5391 116.297 39.5312C 115.547 38.5234 114.516 37.6445 113.203 36.8945C 111.914 36.1211 110.391 35.4414 108.633 34.8555C 106.898 34.2695 105.059 33.7305 103.113 33.2383C 101.168 32.7227 99.1523 32.2305 97.0664 31.7617C 95.0039 31.2695 93 30.7422 91.0547 30.1797C 89.1094 29.6172 87.2578 28.9844 85.5 28.2812C 83.7656 27.5781 82.2422 26.7578 80.9297 25.8203C 79.6406 24.8594 78.6094 23.7578 77.8359 22.5156C 77.0859 21.2734 76.7109 19.832 76.7109 18.1914C 76.7109 16.5742 77.0156 15.1445 77.625 13.9023C 78.2344 12.6367 79.0664 11.5469 80.1211 10.6328C 81.1992 9.71875 82.4531 8.95703 83.8828 8.34766C 85.3125 7.71484 86.8359 7.22266 88.4531 6.87109C 90.0938 6.4961 91.793 6.22656 93.5508 6.0625C 95.3086 5.89844 97.043 5.81641 98.7539 5.81641C 100.629 5.81641 102.398 5.89844 104.062 6.0625C 105.75 6.22656 107.367 6.44922 108.914 6.73047C 110.484 6.98828 112.008 7.29297 113.484 7.64453C 114.984 7.99609 116.496 8.37109 118.02 8.76953L 118.02 13.832ZM 155.25 10.7031L 155.25 55L 150.891 55L 150.891 10.7031L 128.918 10.7031L 128.918 6.69531L 177.223 6.69531L 177.223 10.7031L 155.25 10.7031ZM 191.109 34.3281L 191.109 55L 186.715 55L 186.715 6.69531L 210.762 6.69531C 214.441 6.69531 217.594 6.98828 220.219 7.57422C 222.844 8.13672 224.988 9.0039 226.652 10.1758C 228.34 11.3242 229.57 12.7656 230.344 14.5C 231.117 16.2344 231.504 18.2617 231.504 20.582C 231.504 24.1914 230.555 27.0859 228.656 29.2656C 226.758 31.4219 223.699 32.8984 219.48 33.6953L 235.969 55L 230.449 55L 214.875 34.1875C 214.219 34.2344 213.551 34.2695 212.871 34.293C 212.191 34.3164 211.488 34.3281 210.762 34.3281L 191.109 34.3281ZM 226.969 20.582C 226.969 18.5195 226.605 16.8555 225.879 15.5898C 225.152 14.3008 223.969 13.3047 222.328 12.6016C 220.688 11.8984 218.531 11.4297 215.859 11.1953C 213.211 10.9375 209.953 10.8086 206.086 10.8086L 191.109 10.8086L 191.109 30.2148L 205.945 30.2148C 209.812 30.2148 213.082 30.1094 215.754 29.8984C 218.426 29.6641 220.594 29.207 222.258 28.5273C 223.922 27.8242 225.117 26.8516 225.844 25.6094C 226.594 24.3438 226.969 22.668 226.969 20.582Z"/>
<path id="path2_fill" d="M 57.6562 51.168C 55.9688 51.8711 54.293 52.5156 52.6289 53.1016C 50.9883 53.6875 49.2773 54.1914 47.4961 54.6133C 45.7148 55.0352 43.8398 55.3633 41.8711 55.5977C 39.9023 55.832 37.7578 55.9492 35.4375 55.9492C 32.5781 55.9492 29.8242 55.7148 27.1758 55.2461C 24.5508 54.7773 22.1016 54.0742 19.8281 53.1367C 17.5547 52.1992 15.4922 51.0391 13.6406 49.6562C 11.7891 48.25 10.1953 46.6211 8.85938 44.7695C 7.54688 42.918 6.52734 40.832 5.80078 38.5117C 5.09766 36.1914 4.74609 33.6484 4.74609 30.8828C 4.74609 28.1172 5.09766 25.5742 5.80078 23.2539C 6.52734 20.9336 7.54688 18.8477 8.85938 16.9961C 10.1953 15.1445 11.7891 13.5273 13.6406 12.1445C 15.4922 10.7383 17.5547 9.5664 19.8281 8.62891C 22.1016 7.69141 24.5508 6.98828 27.1758 6.51953C 29.8008 6.05078 32.5547 5.81641 35.4375 5.81641C 37.7578 5.81641 39.9023 5.9336 41.8711 6.16797C 43.8398 6.40234 45.7148 6.73047 47.4961 7.15234C 49.2773 7.57422 50.9883 8.07813 52.6289 8.66406C 54.293 9.22656 55.9688 9.85938 57.6562 10.5625L 57.6562 15.8359C 56.3203 14.9922 54.8906 14.1953 53.3672 13.4453C 51.8437 12.6953 50.1914 12.0391 48.4102 11.4766C 46.6523 10.9141 44.7656 10.4688 42.75 10.1406C 40.7344 9.8125 38.5781 9.64844 36.2812 9.64844C 31.6406 9.64844 27.6211 10.1523 24.2227 11.1602C 20.8242 12.168 18.0117 13.5977 15.7852 15.4492C 13.582 17.2773 11.9414 19.5039 10.8633 22.1289C 9.80859 24.7305 9.28125 27.6484 9.28125 30.8828C 9.28125 34.1172 9.80859 37.0352 10.8633 39.6367C 11.9414 42.2383 13.582 44.4648 15.7852 46.3164C 18.0117 48.1445 20.8242 49.5625 24.2227 50.5703C 27.6211 51.5547 31.6406 52.0469 36.2812 52.0469C 38.5781 52.0469 40.7461 51.8828 42.7852 51.5547C 44.8477 51.2266 46.7695 50.7812 48.5508 50.2188C 50.3555 49.6562 52.0078 49.0117 53.5078 48.2852C 55.0313 47.5352 56.4141 46.75 57.6562 45.9297L 57.6562 51.168ZM 118.371 55L 118.371 31.5859L 75.0938 31.5859L 75.0938 55L 70.6992 55L 70.6992 6.69531L 75.0938 6.69531L 75.0938 27.5078L 118.371 27.5078L 118.371 6.69531L 122.766 6.69531L 122.766 55L 118.371 55ZM 183.27 55L 176.625 42.2734L 143.824 42.2734L 137.18 55L 132.363 55L 157.641 6.69531L 162.809 6.69531L 188.086 55L 183.27 55ZM 160.242 10.9492L 145.969 38.2305L 174.48 38.2305L 160.242 10.9492ZM 202.008 34.3281L 202.008 55L 197.613 55L 197.613 6.69531L 221.66 6.69531C 225.34 6.69531 228.492 6.98828 231.117 7.57422C 233.742 8.13672 235.887 9.0039 237.551 10.1758C 239.238 11.3242 240.469 12.7656 241.242 14.5C 242.016 16.2344 242.402 18.2617 242.402 20.582C 242.402 24.1914 241.453 27.0859 239.555 29.2656C 237.656 31.4219 234.598 32.8984 230.379 33.6953L 246.867 55L 241.348 55L 225.773 34.1875C 225.117 34.2344 224.449 34.2695 223.77 34.293C 223.09 34.3164 222.387 34.3281 221.66 34.3281L 202.008 34.3281ZM 237.867 20.582C 237.867 18.5195 237.504 16.8555 236.777 15.5898C 236.051 14.3008 234.867 13.3047 233.227 12.6016C 231.586 11.8984 229.43 11.4297 226.758 11.1953C 224.109 10.9375 220.852 10.8086 216.984 10.8086L 202.008 10.8086L 202.008 30.2148L 216.844 30.2148C 220.711 30.2148 223.98 30.1094 226.652 29.8984C 229.324 29.6641 231.492 29.207 233.156 28.5273C 234.82 27.8242 236.016 26.8516 236.742 25.6094C 237.492 24.3438 237.867 22.668 237.867 20.582ZM 254.637 55L 254.637 51.4141L 289.652 10.8086L 255.586 10.8086L 255.586 6.69531L 296.473 6.69531L 296.473 9.05078L 260.402 50.8867L 297.211 50.8867L 297.211 55L 254.637 55Z"/>
<path id="path3_fill" d="M 59.3438 68.0781L 59.3438 109L 50.5547 109L 50.5547 68.0781L 5.20312 12.3906L 15.6797 12.3906L 54.9844 60.7656L 94.1484 12.3906L 104.695 12.3906L 59.3438 68.0781Z"/>
</defs>
</svg>
